<svg width="57" height="59" viewBox="0 0 57 59" fill="none" xmlns="http://www.w3.org/2000/svg">
<path d="M2 40C2.00017 35.4723 7.16676 25 9.50009 21.5H38.5001C40.8334 24.5 47.3 33.6 46.5 42C46.5 50 37.5 56.8333 33 57.5H24.5H16.5C13.5 57.5 8.5002 54.5 6.0002 51.5C4.27645 49.4315 1.9998 45.5 2 40Z" stroke="black" stroke-width="3"/>
<path d="M29 14L41 2C41 2 59.5 2.00001 54.5 2" stroke="black" stroke-width="3"/>
<path d="M10.5 16C9.3 17.2 9 19.5 9 20.5V21.5H39V17C39 15.8 37 14.8333 36 14.5H14.5C13.6667 14.5 11.7 14.8 10.5 16Z" stroke="black" stroke-width="3"/>
</svg>
